# xmcd
#
# Track frame offsets:
#	150
#	23490
#	59010
#
# Disc length: 1314 seconds
#
# Revision: 0
# Processed by: cddbd v1.5.1PL2 Copyright (c) Steve Scherf et al.
# Submitted via: audiograbber 1.80
#
DISCID=1e052003
DTITLE=West Allison Blues Band - Christmas Blues
DYEAR=1900
DGENRE=
TTITLE0=Christmas Blues
TTITLE1=What´s wrong with you
TTITLE2=Crying
EXTD=
EXTT0=
EXTT1=
EXTT2=
PLAYORDER=
